{"title":"GUN-405 Starring_ Ayaka ã‚ã‚„ã‹ aka ç¶¾é¦™","uid":14443506,"size":734173296,"categoryP":"porn","categoryS":"movies","magnet":"?xt=urn:btih:5b6dfe52a019fbe6fa249529a040bb4103edbbdf&amp;dn=GUN-405+Starring_+Ayaka+%E3%81%82%E3%82%84%E3%81%8B+aka+%E7%B6%BE%E9%A6%99&amp;tr=udp%3A%2F%2Ftracker.leechers-paradise.org%3A6969&amp;tr=udp%3A%2F%2Fzer0day.ch%3A1337&amp;tr=udp%3A%2F%2Fopen.demonii.com%3A1337&amp;tr=udp%3A%2F%2Ftracker.coppersurfer.tk%3A6969&amp;tr=udp%3A%2F%2Fexodus.desync.com%3A6969","seeders":0,"leechers":0,"uploader":"drdre10","files":3,"time":1461702308,"description":"https://avmo.pw/en/movie/w2w\r\n\r\n\r\nMovie is censored (mosaic).\r\n\r\n\r\nFormat                                   : AVI\r\nFormat/Info                              : Audio Video Interleave\r\nFile size                                : 700 MiB\r\nDuration                                 : 1h 29mn\r\nOverall bit rate                         : 1 088 Kbps\r\nWriting application                      : VirtualDubMod 1.5.4.1 (build 2178/release)\r\nWriting library                          : VirtualDubMod build 2178/release\r\n\r\nVideo\r\nID                                       : 0\r\nFormat                                   : MPEG-4 Visual\r\nFormat profile                           : Advanced   \r\nFormat settings, BVOP                    : 1\r\nFormat settings, QPel                    : No\r\nFormat settings, GMC                     : No warppoints\r\nFormat settings, Matrix                  : Custom\r\nCodec ID                                 : XVID\r\nCodec ID/Hint                            : XviD\r\nDuration                                 : 1h 29mn\r\nBit rate                                 : 951 Kbps\r\nWidth                                    : 480 pixels\r\nHeight                                   : 368 pixels\r\nDisplay aspect ratio                     : 4:3\r\nFrame rate                               : 29.970 (29970/1000) fps\r\nColor space                              : YUV\r\nChroma subsampling                       : 4:2:0\r\nBit depth                                : 8 bits\r\nScan type                                : Progressive\r\nCompression mode                         : Lossy\r\nBits/(Pixel*Frame)                       : 0.180\r\nStream size                              : 612 MiB (87%)\r\nWriting library                          : XviD 1.2.0.dev47 (UTC 2006-11-01)\r\n\r\nAudio\r\nID                                       : 1\r\nFormat                                   : MPEG Audio\r\nFormat version                           : Version 1\r\nFormat profile                           : Layer 3\r\nMode                                     : Joint stereo\r\nMode extension                           : MS Stereo\r\nCodec ID                                 : 55\r\nCodec ID/Hint                            : MP3\r\nDuration                                 : 1h 29mn\r\nBit rate mode                            : Constant\r\nBit rate                                 : 128 Kbps\r\nChannel(s)                               : 2 channels\r\nSampling rate                            : 48.0 KHz\r\nCompression mode                         : Lossy\r\nStream size                              : 82.3 MiB (12%)\r\nAlignment                                : Aligned on interleaves\r\nInterleave, duration                     : 67 ms (2.00 video frames)\r\nInterleave, preload duration             : 504 ms\r\nWriting library                          : LAME3.97 \r\nEncoding settings                        : -m j -V 4 -q 2 -lowpass 17 -b 128\r\nLanguage                                 : Japanese","torrent":{"xt":"urn:btih:5b6dfe52a019fbe6fa249529a040bb4103edbbdf","amp;dn":"GUN-405+Starring_+Ayaka+%E3%81%82%E3%82%84%E3%81%8B+aka+%E7%B6%BE%E9%A6%99","amp;tr":["udp%3A%2F%2Ftracker.leechers-paradise.org%3A6969","udp%3A%2F%2Fzer0day.ch%3A1337","udp%3A%2F%2Fopen.demonii.com%3A1337","udp%3A%2F%2Ftracker.coppersurfer.tk%3A6969","udp%3A%2F%2Fexodus.desync.com%3A6969"],"infoHash":"5b6dfe52a019fbe6fa249529a040bb4103edbbdf","infoHashBuffer":{"type":"Buffer","data":[91,109,254,82,160,25,251,230,250,36,149,41,160,64,187,65,3,237,187,223]},"announce":[],"urlList":[]}}